<svg xmlns="http://www.w3.org/2000/svg" id="Layer_1" data-name="Layer 1" width="200" height="60" viewBox="0 0 200 60"><defs><style>.cls-1{fill:#1d1d1b;}.cls-2{fill:#f28f00;}</style></defs><path class="cls-1" d="M26.9,22.5a2.4,2.4,0,0,0-.6-1.5c-.9-1.1-2.3-1.6-4.3-1.6a8.33,8.33,0,0,0-2.2.3c-1.8.6-2.7,1.5-2.7,2.8a1.61,1.61,0,0,0,.3.9c.5.6,2.1,1.3,4.9,2.2,1.8.5,3.1,1,3.9,1.3,3.8,1.5,5.6,3.7,5.6,6.4a5.84,5.84,0,0,1-1.6,4,10.47,10.47,0,0,1-8.3,3.4,11.47,11.47,0,0,1-6.7-1.9A6.39,6.39,0,0,1,12,33.3h4.3a2.4,2.4,0,0,0,.6,1.5c1,1.1,2.7,1.7,5,1.7a9.86,9.86,0,0,0,2.4-.3c2.1-.5,3.2-1.5,3.2-2.8a1.6,1.6,0,0,0-.3-.8q-.75-.9-4.8-2.1c-1.7-.5-3.1-1-3.9-1.3-3.8-1.5-5.7-3.7-5.7-6.5a6.33,6.33,0,0,1,1.6-4.2,9.38,9.38,0,0,1,7.5-3.2,10,10,0,0,1,5.9,1.8A6.78,6.78,0,0,1,31,22.7H26.9Z"></path><path class="cls-1" d="M40.3,33.1c0,2.1,1.3,3.2,3.9,3.2h2.1v4.3H44.2a12.65,12.65,0,0,1-2.8-.3c-3.5-.8-5.3-3.2-5.3-7.1V19.3H32.6V15h3.5V9.5l.1-2.1h4.3l-.1,2.1V15h5.9v4.3H40.4Z"></path><path class="cls-1" d="M50,19.2a10.94,10.94,0,0,1,8.6-4.1A11.21,11.21,0,0,1,66.1,18V15.1h4.3V40.5H66V37.6a11,11,0,0,1-7.5,2.9,10.58,10.58,0,0,1-7.6-3.1,12.61,12.61,0,0,1-4.1-9.7A13.17,13.17,0,0,1,50,19.2ZM52.7,33a7,7,0,0,0,5.9,3.4,6.81,6.81,0,0,0,4.5-1.7,8.52,8.52,0,0,0,3-6.8,9.55,9.55,0,0,0-1.5-5.2,7,7,0,0,0-5.9-3.4A6.81,6.81,0,0,0,54.2,21a8.52,8.52,0,0,0-3,6.8A8.13,8.13,0,0,0,52.7,33Z"></path><path class="cls-1" d="M87.2,15.1h2.1v4.3H87.2a6.9,6.9,0,0,0-3.2.8c-2.4,1.3-3.6,3.8-3.6,7.4v13H76.1V15.1h4.3v2.2A10.48,10.48,0,0,1,87.2,15.1Z"></path><path class="cls-1" d="M110.2,35.7a11,11,0,0,1-9.4,4.9,10.61,10.61,0,0,1-7.4-3,12.68,12.68,0,0,1-4-9.7,13.52,13.52,0,0,1,3-8.7,10.7,10.7,0,0,1,8.4-4.1,11.06,11.06,0,0,1,9.5,4.6l-3.5,2.4c-1.2-1.8-3.2-2.7-6-2.8A6.31,6.31,0,0,0,96.5,21a8.62,8.62,0,0,0-2.9,6.8A10.3,10.3,0,0,0,95,32.9a6.61,6.61,0,0,0,5.8,3.5,7.49,7.49,0,0,0,6-3.1Z"></path><path class="cls-1" d="M115.4,19.2a10.94,10.94,0,0,1,8.6-4.1,10.58,10.58,0,0,1,7.6,3.1,12.61,12.61,0,0,1,4.1,9.7,13.08,13.08,0,0,1-3.1,8.7,10.94,10.94,0,0,1-8.6,4.1,10.58,10.58,0,0,1-7.6-3.1,12.61,12.61,0,0,1-4.1-9.7A12.26,12.26,0,0,1,115.4,19.2ZM118,33a7,7,0,0,0,5.9,3.4,6.81,6.81,0,0,0,4.5-1.7,8.52,8.52,0,0,0,3-6.8,9.55,9.55,0,0,0-1.5-5.2,7,7,0,0,0-5.9-3.4,6.81,6.81,0,0,0-4.5,1.7,8.52,8.52,0,0,0-3,6.8A9.55,9.55,0,0,0,118,33Z"></path><path class="cls-1" d="M156.3,18.7a9,9,0,0,1,13.1-1.4,10.07,10.07,0,0,1,3.6,8V38.5l.1,2.2h-4.2l-.1-2.1-.1-13.3a7.22,7.22,0,0,0-.8-3.2,4.8,4.8,0,0,0-4.4-2.7,4.64,4.64,0,0,0-2.9,1,5.74,5.74,0,0,0-2.3,5V38.6l.1,2.2h-4.2l-.1-2.1L154,27.6V25.5a7.22,7.22,0,0,0-.8-3.2,4.8,4.8,0,0,0-4.4-2.7,4.64,4.64,0,0,0-2.9,1,5.74,5.74,0,0,0-2.3,5V40.9h-4.3V15.1h4.3v1.7a9,9,0,0,1,5.2-1.7,9.39,9.39,0,0,1,7.3,3.7A.35.35,0,0,0,156.3,18.7Z"></path><circle class="cls-2" cx="184" cy="34.1" r="6.5"></circle><path class="cls-2" d="M93.6,50.1H90.5l-.6,1.7h-.7l2.5-6.7h.9l2.5,6.7h-.8Zm-.2-.6-1.3-3.7-1.3,3.7Z"></path><path class="cls-2" d="M104.4,45.1v6.7h-.6l-4-5.5v5.5h-.7V45.1h.6l4,5.5V45.1Z"></path><path class="cls-2" d="M109.5,47a2,2,0,0,1,.9.9,3.9,3.9,0,0,1,0,3,2,2,0,0,1-.9.9,2.55,2.55,0,0,1-2.4,0,2,2,0,0,1-.9-.9,3.9,3.9,0,0,1,0-3,2,2,0,0,1,.9-.9,2.55,2.55,0,0,1,2.4,0Zm-2.5.8a2.5,2.5,0,0,0,0,3,1.35,1.35,0,0,0,1.2.5,1.66,1.66,0,0,0,1.2-.5,2.25,2.25,0,0,0,.5-1.5,2.46,2.46,0,0,0-.5-1.5,1.35,1.35,0,0,0-1.2-.5A1.66,1.66,0,0,0,107,47.8Z"></path><path class="cls-2" d="M112.7,51.7a2.36,2.36,0,0,1-.8-.9,3.9,3.9,0,0,1,0-3,2.36,2.36,0,0,1,.8-.9,2,2,0,0,1,1.1-.3,1.89,1.89,0,0,1,1.5.6V44.6h.7v7.2h-.5l-.1-.6h0a1.79,1.79,0,0,1-.7.5,2.92,2.92,0,0,1-.9.2A1.47,1.47,0,0,1,112.7,51.7Zm2-.6a2.65,2.65,0,0,0,.6-.5V48a2,2,0,0,0-1.4-.6,2.35,2.35,0,0,0-.8.2,2.17,2.17,0,0,0-.6.7,2,2,0,0,0-.2,1.1,3.59,3.59,0,0,0,.2,1.1,2,2,0,0,0,.6.7,1.88,1.88,0,0,0,.8.2C114.2,51.3,114.5,51.3,114.7,51.1Z"></path><path class="cls-2" d="M121.8,49.6H118a2.57,2.57,0,0,0,.5,1.4,1.59,1.59,0,0,0,1.2.4,2.92,2.92,0,0,0,.9-.2,1.61,1.61,0,0,0,.7-.4l.4.5a4.05,4.05,0,0,1-.9.5,3.73,3.73,0,0,1-1.2.2,2.66,2.66,0,0,1-1.2-.3,2.58,2.58,0,0,1-.9-.9,3.19,3.19,0,0,1-.3-1.4,2.9,2.9,0,0,1,.3-1.4,2.36,2.36,0,0,1,.8-.9,2.66,2.66,0,0,1,1.2-.3,2.38,2.38,0,0,1,1.2.3,1.6,1.6,0,0,1,.7.9,2.34,2.34,0,0,1,.2,1.2C121.8,49.2,121.8,49.4,121.8,49.6Zm-3.3-1.9A1.73,1.73,0,0,0,118,49h3.2a2.14,2.14,0,0,0-.4-1.2,1.43,1.43,0,0,0-1.1-.5A1.59,1.59,0,0,0,118.5,47.7Z"></path><path class="cls-2" d="M128,49.4V50h-1.1v1.8h-.7V50h-3.4v-.5l3.5-4.4h.6v4.3Zm-1.8,0V46.1l-2.7,3.3Z"></path><path class="cls-2" d="M136.2,45.2a3.92,3.92,0,0,1,.9.4l-.4.5a3.45,3.45,0,0,0-1.8-.5,2.66,2.66,0,0,0-1.2.3,2.23,2.23,0,0,0-.9,1,4.42,4.42,0,0,0,0,3.2,2.36,2.36,0,0,0,.8.9,2.78,2.78,0,0,0,3.1-.4l.4.5a8.79,8.79,0,0,1-1,.6,5.07,5.07,0,0,1-1.3.2,2.93,2.93,0,0,1-1.6-.4,2.18,2.18,0,0,1-1.1-1.2,4,4,0,0,1-.4-2,3.58,3.58,0,0,1,.4-1.9,3.18,3.18,0,0,1,1.1-1.2,4.19,4.19,0,0,1,1.6-.4C135.4,45,135.8,45.1,136.2,45.2Z"></path><path class="cls-2" d="M141.6,47a2,2,0,0,1,.9.9,3.9,3.9,0,0,1,0,3,2,2,0,0,1-.9.9,2.55,2.55,0,0,1-2.4,0,2,2,0,0,1-.9-.9,3.9,3.9,0,0,1,0-3,2,2,0,0,1,.9-.9,2.66,2.66,0,0,1,1.2-.3A2.13,2.13,0,0,1,141.6,47Zm-2.4.8a2.5,2.5,0,0,0,0,3,1.35,1.35,0,0,0,1.2.5,1.66,1.66,0,0,0,1.2-.5,2.5,2.5,0,0,0,0-3,1.35,1.35,0,0,0-1.2-.5A1.66,1.66,0,0,0,139.2,47.8Z"></path><path class="cls-2" d="M150.6,47.1a1.7,1.7,0,0,1,.4,1.3v3.4h-.7V48.4c0-.8-.3-1.2-1-1.2a2.35,2.35,0,0,0-.8.2l-.7.7v3.6h-.7V48.3a1.22,1.22,0,0,0-.3-.9.91.91,0,0,0-.7-.3,1.14,1.14,0,0,0-.8.3,4.35,4.35,0,0,0-.6.7v3.6H144v-5h.5l.1.7h0a1.34,1.34,0,0,1,.7-.6,2.13,2.13,0,0,1,1.8,0,2.17,2.17,0,0,1,.6.7,1.78,1.78,0,0,1,.8-.7,2.92,2.92,0,0,1,.9-.2A2.2,2.2,0,0,1,150.6,47.1Z"></path><path class="cls-2" d="M155.9,47a1.78,1.78,0,0,1,.7.8,2.9,2.9,0,0,1,.3,1.4,3.19,3.19,0,0,1-.3,1.4,3.92,3.92,0,0,1-.8,1,2,2,0,0,1-1.1.3,2.2,2.2,0,0,1-.8-.1l-.6-.3v2.2h-.7v-7h.5l.1.8h0a2.34,2.34,0,0,1,.7-.7,2.92,2.92,0,0,1,.9-.2A2.82,2.82,0,0,1,155.9,47Zm-1.9.6a2.85,2.85,0,0,0-.7.8V51c.2.1.4.3.5.3a1.48,1.48,0,0,0,.7.1,1.88,1.88,0,0,0,.8-.2,1.34,1.34,0,0,0,.6-.7,2,2,0,0,0,.2-1.1,2.41,2.41,0,0,0-.4-1.5,1.39,1.39,0,0,0-1-.5A.66.66,0,0,0,154,47.6Z"></path><path class="cls-2" d="M162.3,51.4l-.1.5c-.1.1-.2.1-.4.1a.68.68,0,0,1-.7-.7,5.55,5.55,0,0,1-.8.6,3,3,0,0,1-1,.2,1.37,1.37,0,0,1-1.1-.4,1.23,1.23,0,0,1-.5-1,1.15,1.15,0,0,1,.6-1.1,3.31,3.31,0,0,1,1.5-.4,6.15,6.15,0,0,1,1.3.1v-.8a1,1,0,0,0-.4-.9,1.22,1.22,0,0,0-.9-.3,2.39,2.39,0,0,0-1.4.5l-.3-.5a3.51,3.51,0,0,1,.8-.5,3,3,0,0,1,1-.2,2,2,0,0,1,1.4.4,1.73,1.73,0,0,1,.5,1.3V51a.37.37,0,0,0,.1.3c.1.1.1.1.3.1Zm-2-.2a1.34,1.34,0,0,0,.7-.6v-.8a5.74,5.74,0,0,0-1.2-.1,3,3,0,0,0-1,.2.67.67,0,0,0-.4.7.6.6,0,0,0,.3.6,1.85,1.85,0,0,0,.7.2A2.92,2.92,0,0,0,160.3,51.2Z"></path><path class="cls-2" d="M163.4,46.8h.5l.1.8h0a2.7,2.7,0,0,1,.8-.7,1.64,1.64,0,0,1,1-.2,1.41,1.41,0,0,1,1.6,1.6v3.5h-.7V48.5c0-.4-.1-.8-.3-.9a1,1,0,0,0-.8-.3,2.92,2.92,0,0,0-.9.2,1.85,1.85,0,0,0-.7.8v3.5h-.7v-5Z"></path><path class="cls-2" d="M173.2,46.8l-2,5.3a3.22,3.22,0,0,1-.8,1.3,1.5,1.5,0,0,1-1.1.4,1.7,1.7,0,0,1-.7-.1l.1-.5c.1,0,.1,0,.2.1h.3a1.08,1.08,0,0,0,.7-.3,1.79,1.79,0,0,0,.5-.7l.1-.3-2.2-5.2h.7l1.7,4.5,1.6-4.5Z"></path></svg>