<svg xmlns="http://www.w3.org/2000/svg" id="Layer_1" data-name="Layer 1" viewBox="0 0 827.85 151.48"><defs><style>.cls-1{fill:#6ebe49;}.cls-2{fill:#fff;}</style></defs><path class="cls-1" d="M592.11,109.16c-1.47-7.4-7.4-11.13-14.64-11.13-12.45,0-17.72,10.24-17.72,21.15,0,11.94,5.27,21.9,17.79,21.9,9.15,0,14.42-6.44,15.08-15.09h7c-1.32,13-9.44,20.94-22.62,20.94-16.26,0-24.16-12-24.16-27.24s8.64-27.53,24.75-27.53c10.91,0,19.91,5.86,21.53,17h-7Z"></path><rect class="cls-1" x="605.72" y="93.42" width="6.22" height="52.28"></rect><path class="cls-1" d="M636.1,141.09c6.51,0,11.78-5.12,11.78-14.27s-5.27-14.35-11.78-14.35-11.79,5.12-11.79,14.35,5.26,14.27,11.79,14.27m0-34.12c12,0,18.37,8.71,18.37,19.84s-6.36,19.76-18.37,19.76-18.38-8.72-18.38-19.76S624.08,107,636.1,107"></path><path class="cls-1" d="M691.29,145.7h-5.86v-6h-.14c-2.64,4.69-6.89,6.88-12.31,6.88-10,0-13-5.71-13-13.84V107.84h6.22v25.63c0,4.62,2.93,7.61,7.69,7.61,7.54,0,11.2-5.05,11.2-11.86V107.84h6.23Z"></path><path class="cls-1" d="M715.08,141.09c8.35,0,11.56-7.18,11.56-14.27,0-7.47-3.36-14.35-11.93-14.35s-11.36,7.25-11.36,14.64c0,7.1,3.67,14,11.73,14m17.57,4.61h-6.23v-5.13h-.15c-2,4.18-6.88,6-12.08,6-11.64,0-17.42-9.22-17.42-19.91S702.48,107,714,107c3.88,0,9.45,1.46,12.23,5.93h.15V93.42h6.23Z"></path><polygon class="cls-1" points="796.03 25.83 796.03 36.98 740.84 36.98 740.84 45.95 796.71 45.95 796.71 57.84 726.26 57.84 726.26 5.49 796.71 5.49 796.71 17.38 740.84 17.38 740.84 25.83 796.03 25.83"></polygon><polygon class="cls-1" points="553.51 45.8 553.51 57.84 486.94 57.84 486.94 5.49 501.83 5.49 501.83 45.8 553.51 45.8"></polygon><polygon class="cls-1" points="610.75 5.49 629.59 5.49 629.59 5.71 593.84 37.13 593.84 57.84 578.95 57.84 578.95 37.28 543.28 5.71 543.28 5.49 563.17 5.49 586.96 26.81 610.75 5.49"></polygon><polygon class="cls-1" points="684.14 57.84 665.8 57.84 629.68 5.49 647.71 5.49 675.3 46.7 702.99 5.49 720.26 5.49 684.14 57.84"></polygon><path class="cls-1" d="M824.28,15.78h-1.74V7h0L819,15.78h-1.1L814.47,7h-.05v8.8h-1.74V5.24h2.69l3.15,8,3.1-8h2.66ZM810.53,6.64h-3.3v9.14h-1.74V6.64h-3.3V5.24h8.35v1.4Z"></path><path class="cls-2" d="M293.48,52.67A22.51,22.51,0,0,0,285.07,60V49.76h-8.62V65h0V97.12h0v15.2h8.62V77c0-8.49,11.81-22.67,25-18.33l1.83-7.39a18.82,18.82,0,0,0-7.53-1.22A24.74,24.74,0,0,0,293.48,52.67Z"></path><path class="cls-2" d="M3.51,50.1v8.75h39c-.4.47-37.32,45.26-37.52,45.53-2.58,3.33-1,6.11.06,6.86,1.29,1,2.65,1,4.35,1.15H55.22v-8.75H16.88c.34-.41,37.32-45.27,37.53-45.54,2.58-3.32,1-6-.07-6.85a7.33,7.33,0,0,0-4.28-1.15Z"></path><path class="cls-2" d="M106.8,54.17a32.74,32.74,0,0,0-31.63,0A29.18,29.18,0,0,0,64,65.43,31.69,31.69,0,0,0,59.9,81.31a32.17,32.17,0,0,0,3.94,15.81,30.3,30.3,0,0,0,39.56,12.22,27.63,27.63,0,0,0,9.91-8.42v11.54h8.75V81.31A31.58,31.58,0,0,0,118,65.43,30.15,30.15,0,0,0,106.8,54.17Zm3.8,39.09A21.75,21.75,0,0,1,91,104.59a23.06,23.06,0,0,1-11.6-3,21.88,21.88,0,0,1-8.14-8.34,25.48,25.48,0,0,1,0-23.82A22,22,0,0,1,91,58,22.13,22.13,0,0,1,110.6,69.44a25.54,25.54,0,0,1,0,23.82Z"></path><path class="cls-2" d="M373.09,65.43a30.25,30.25,0,0,0-11.2-11.26,32.72,32.72,0,0,0-31.62,0,29.13,29.13,0,0,0-11.2,11.26A31.58,31.58,0,0,0,315,81.31a31.49,31.49,0,0,0,4,15.81,30.23,30.23,0,0,0,39.5,12.22,27.68,27.68,0,0,0,9.9-8.42v11.54h8.76V81.31A31.68,31.68,0,0,0,373.09,65.43Zm-7.4,27.83A21.94,21.94,0,0,1,346,104.59a22.66,22.66,0,0,1-11.54-3,21.88,21.88,0,0,1-8.14-8.34,25.48,25.48,0,0,1,0-23.82,22.5,22.5,0,0,1,39.36,0,25.48,25.48,0,0,1,0,23.82Z"></path><path class="cls-2" d="M250.26,54.17a32.74,32.74,0,0,0-31.63,0,29.18,29.18,0,0,0-11.19,11.26,33.06,33.06,0,0,0-.07,31.69,30.22,30.22,0,0,0,39.49,12.22,27.63,27.63,0,0,0,9.91-8.42v11.54h8.76V81.31a31.14,31.14,0,0,0-4.14-15.88A29.57,29.57,0,0,0,250.26,54.17Zm3.86,39.09A21.88,21.88,0,0,1,246,101.6a22.13,22.13,0,0,1-11.54,3,22.62,22.62,0,0,1-11.53-3,21.84,21.84,0,0,1-8.15-8.34,25.54,25.54,0,0,1,0-23.82A22.55,22.55,0,0,1,222.91,61,21.87,21.87,0,0,1,234.51,58a22.1,22.1,0,0,1,19.61,11.47A25.48,25.48,0,0,1,254.12,93.26Z"></path><path class="cls-2" d="M193.73,28.85V24.24H185V39.51h0V61.7a27.68,27.68,0,0,0-9.9-8.42,28.38,28.38,0,0,0-13.31-3.05A29.42,29.42,0,0,0,135.57,65.5a32.17,32.17,0,0,0-4,15.81,31.55,31.55,0,0,0,4.07,15.88,30.25,30.25,0,0,0,11.19,11.27,32.74,32.74,0,0,0,31.63,0,29.36,29.36,0,0,0,11.2-11.27,31.76,31.76,0,0,0,4.07-15.88V28.85Zm-11.4,64.27a22.68,22.68,0,0,1-39.43,0,25.48,25.48,0,0,1,0-23.82A21.91,21.91,0,0,1,151,61a23,23,0,0,1,11.54-3.05A22.31,22.31,0,0,1,174.12,61a21.42,21.42,0,0,1,8.14,8.35A25.34,25.34,0,0,1,182.33,93.12Z"></path><rect class="cls-2" x="430.1" y="2.27" width="3" height="146.93"></rect></svg>